<?xml version="1.0" encoding="UTF-8"?>
<!DOCTYPE svg PUBLIC "-//W3C//DTD SVG 1.1//EN" "http://www.w3.org/Graphics/SVG/1.1/DTD/svg11.dtd">
<svg version="1.2" width="120.53mm" height="85.15mm" viewBox="1364 6894 12053 8515" preserveAspectRatio="xMidYMid" fill-rule="evenodd" stroke-width="28.222" stroke-linejoin="round" xmlns="http://www.w3.org/2000/svg" xmlns:ooo="http://xml.openoffice.org/svg/export" xmlns:xlink="http://www.w3.org/1999/xlink" xmlns:presentation="http://sun.com/xmlns/staroffice/presentation" xmlns:smil="http://www.w3.org/2001/SMIL20/" xmlns:anim="urn:oasis:names:tc:opendocument:xmlns:animation:1.0" xml:space="preserve">
 <defs class="EmbeddedBulletChars">
  <g id="bullet-char-template-57356" transform="scale(0.00048828125,-0.00048828125)">
   <path d="M 580,1141 L 1163,571 580,0 -4,571 580,1141 Z"/>
  </g>
  <g id="bullet-char-template-57354" transform="scale(0.00048828125,-0.00048828125)">
   <path d="M 8,1128 L 1137,1128 1137,0 8,0 8,1128 Z"/>
  </g>
  <g id="bullet-char-template-10146" transform="scale(0.00048828125,-0.00048828125)">
   <path d="M 174,0 L 602,739 174,1481 1456,739 174,0 Z M 1358,739 L 309,1346 659,739 1358,739 Z"/>
  </g>
  <g id="bullet-char-template-10132" transform="scale(0.00048828125,-0.00048828125)">
   <path d="M 2015,739 L 1276,0 717,0 1260,543 174,543 174,936 1260,936 717,1481 1274,1481 2015,739 Z"/>
  </g>
  <g id="bullet-char-template-10007" transform="scale(0.00048828125,-0.00048828125)">
   <path d="M 0,-2 C -7,14 -16,27 -25,37 L 356,567 C 262,823 215,952 215,954 215,979 228,992 255,992 264,992 276,990 289,987 310,991 331,999 354,1012 L 381,999 492,748 772,1049 836,1024 860,1049 C 881,1039 901,1025 922,1006 886,937 835,863 770,784 769,783 710,716 594,584 L 774,223 C 774,196 753,168 711,139 L 727,119 C 717,90 699,76 672,76 641,76 570,178 457,381 L 164,-76 C 142,-110 111,-127 72,-127 30,-127 9,-110 8,-76 1,-67 -2,-52 -2,-32 -2,-23 -1,-13 0,-2 Z"/>
  </g>
  <g id="bullet-char-template-10004" transform="scale(0.00048828125,-0.00048828125)">
   <path d="M 285,-33 C 182,-33 111,30 74,156 52,228 41,333 41,471 41,549 55,616 82,672 116,743 169,778 240,778 293,778 328,747 346,684 L 369,508 C 377,444 397,411 428,410 L 1163,1116 C 1174,1127 1196,1133 1229,1133 1271,1133 1292,1118 1292,1087 L 1292,965 C 1292,929 1282,901 1262,881 L 442,47 C 390,-6 338,-33 285,-33 Z"/>
  </g>
  <g id="bullet-char-template-9679" transform="scale(0.00048828125,-0.00048828125)">
   <path d="M 813,0 C 632,0 489,54 383,161 276,268 223,411 223,592 223,773 276,916 383,1023 489,1130 632,1184 813,1184 992,1184 1136,1130 1245,1023 1353,916 1407,772 1407,592 1407,412 1353,268 1245,161 1136,54 992,0 813,0 Z"/>
  </g>
  <g id="bullet-char-template-8226" transform="scale(0.00048828125,-0.00048828125)">
   <path d="M 346,457 C 273,457 209,483 155,535 101,586 74,649 74,723 74,796 101,859 155,911 209,963 273,989 346,989 419,989 480,963 531,910 582,859 608,796 608,723 608,648 583,586 532,535 482,483 420,457 346,457 Z"/>
  </g>
  <g id="bullet-char-template-8211" transform="scale(0.00048828125,-0.00048828125)">
   <path d="M -4,459 L 1135,459 1135,606 -4,606 -4,459 Z"/>
  </g>
  <g id="bullet-char-template-61548" transform="scale(0.00048828125,-0.00048828125)">
   <path d="M 173,740 C 173,903 231,1043 346,1159 462,1274 601,1332 765,1332 928,1332 1067,1274 1183,1159 1299,1043 1357,903 1357,740 1357,577 1299,437 1183,322 1067,206 928,148 765,148 601,148 462,206 346,322 231,437 173,577 173,740 Z"/>
  </g>
 </defs>
 <g class="Page">
  <g class="Group">
   <g class="com.sun.star.drawing.PolyPolygonShape">
    <g id="id3">
     <rect class="BoundingBox" stroke="none" fill="none" x="1364" y="6894" width="5653" height="1964"/>
     <path fill="rgb(241,13,12)" stroke="none" d="M 1470,8751 L 6910,8751 6044,7000 2334,7000 1470,8751 Z"/>
     <path fill="none" stroke="rgb(51,51,51)" stroke-width="212" stroke-linejoin="round" d="M 1470,8751 L 6910,8751 6044,7000 2334,7000 1470,8751 Z"/>
    </g>
   </g>
   <g class="com.sun.star.drawing.PolyPolygonShape">
    <g id="id4">
     <rect class="BoundingBox" stroke="none" fill="none" x="2224" y="6894" width="3933" height="1964"/>
     <path fill="rgb(241,13,12)" stroke="none" d="M 2330,7000 L 6050,7000 5458,8751 2921,8751 2330,7000 Z"/>
     <path fill="none" stroke="rgb(51,51,51)" stroke-width="212" stroke-linejoin="round" d="M 2330,7000 L 6050,7000 5458,8751 2921,8751 2330,7000 Z"/>
    </g>
   </g>
   <g class="com.sun.star.drawing.PolyPolygonShape">
    <g id="id5">
     <rect class="BoundingBox" stroke="none" fill="none" x="2706" y="6894" width="2939" height="1964"/>
     <path fill="rgb(241,13,12)" stroke="none" d="M 4216,7000 L 5538,8751 2812,8751 4216,7000 Z"/>
     <path fill="none" stroke="rgb(51,51,51)" stroke-width="212" stroke-linejoin="round" d="M 4216,7000 L 5538,8751 2812,8751 4216,7000 Z"/>
    </g>
   </g>
   <g class="com.sun.star.drawing.PolyPolygonShape">
    <g id="id6">
     <rect class="BoundingBox" stroke="none" fill="none" x="1374" y="8642" width="5634" height="3965"/>
     <path fill="rgb(241,13,12)" stroke="none" d="M 4189,12500 L 6900,8749 1480,8749 4189,12500 Z"/>
     <path fill="none" stroke="rgb(51,51,51)" stroke-width="212" stroke-linejoin="round" d="M 4189,12500 L 6900,8749 1480,8749 4189,12500 Z"/>
    </g>
   </g>
   <g class="com.sun.star.drawing.PolyPolygonShape">
    <g id="id7">
     <rect class="BoundingBox" stroke="none" fill="none" x="2794" y="8644" width="1513" height="3964"/>
     <path fill="rgb(241,13,12)" stroke="none" d="M 2900,8750 L 4200,12500 2900,8750 Z"/>
     <path fill="none" stroke="rgb(51,51,51)" stroke-width="212" stroke-linejoin="round" d="M 2900,8750 L 4200,12500 2900,8750 Z"/>
    </g>
   </g>
   <g class="com.sun.star.drawing.PolyPolygonShape">
    <g id="id8">
     <rect class="BoundingBox" stroke="none" fill="none" x="4064" y="8645" width="1513" height="3964"/>
     <path fill="rgb(241,13,12)" stroke="none" d="M 5470,8751 L 4170,12501 5470,8751 Z"/>
     <path fill="none" stroke="rgb(51,51,51)" stroke-width="212" stroke-linejoin="round" d="M 5470,8751 L 4170,12501 5470,8751 Z"/>
    </g>
   </g>
  </g>
  <g class="Group">
   <g class="com.sun.star.drawing.PolyPolygonShape">
    <g id="id9">
     <rect class="BoundingBox" stroke="none" fill="none" x="7764" y="6895" width="5653" height="1964"/>
     <path fill="rgb(255,255,0)" stroke="none" d="M 7870,8752 L 13310,8752 12444,7001 8734,7001 7870,8752 Z"/>
     <path fill="none" stroke="rgb(51,51,51)" stroke-width="212" stroke-linejoin="round" d="M 7870,8752 L 13310,8752 12444,7001 8734,7001 7870,8752 Z"/>
    </g>
   </g>
   <g class="com.sun.star.drawing.PolyPolygonShape">
    <g id="id10">
     <rect class="BoundingBox" stroke="none" fill="none" x="8624" y="6895" width="3933" height="1964"/>
     <path fill="rgb(255,255,0)" stroke="none" d="M 8730,7001 L 12450,7001 11858,8752 9321,8752 8730,7001 Z"/>
     <path fill="none" stroke="rgb(51,51,51)" stroke-width="212" stroke-linejoin="round" d="M 8730,7001 L 12450,7001 11858,8752 9321,8752 8730,7001 Z"/>
    </g>
   </g>
   <g class="com.sun.star.drawing.PolyPolygonShape">
    <g id="id11">
     <rect class="BoundingBox" stroke="none" fill="none" x="9106" y="6895" width="2939" height="1964"/>
     <path fill="rgb(255,255,0)" stroke="none" d="M 10616,7001 L 11938,8752 9212,8752 10616,7001 Z"/>
     <path fill="none" stroke="rgb(51,51,51)" stroke-width="212" stroke-linejoin="round" d="M 10616,7001 L 11938,8752 9212,8752 10616,7001 Z"/>
    </g>
   </g>
   <g class="com.sun.star.drawing.PolyPolygonShape">
    <g id="id12">
     <rect class="BoundingBox" stroke="none" fill="none" x="7774" y="8644" width="5634" height="3964"/>
     <path fill="rgb(255,255,0)" stroke="none" d="M 10589,12501 L 13300,8750 7880,8750 10589,12501 Z"/>
     <path fill="none" stroke="rgb(51,51,51)" stroke-width="212" stroke-linejoin="round" d="M 10589,12501 L 13300,8750 7880,8750 10589,12501 Z"/>
    </g>
   </g>
   <g class="com.sun.star.drawing.PolyPolygonShape">
    <g id="id13">
     <rect class="BoundingBox" stroke="none" fill="none" x="9194" y="8645" width="1513" height="3964"/>
     <path fill="rgb(255,255,0)" stroke="none" d="M 9300,8751 L 10600,12501 9300,8751 Z"/>
     <path fill="none" stroke="rgb(51,51,51)" stroke-width="212" stroke-linejoin="round" d="M 9300,8751 L 10600,12501 9300,8751 Z"/>
    </g>
   </g>
   <g class="com.sun.star.drawing.PolyPolygonShape">
    <g id="id14">
     <rect class="BoundingBox" stroke="none" fill="none" x="10464" y="8646" width="1513" height="3964"/>
     <path fill="rgb(255,255,0)" stroke="none" d="M 11870,8752 L 10570,12502 11870,8752 Z"/>
     <path fill="none" stroke="rgb(51,51,51)" stroke-width="212" stroke-linejoin="round" d="M 11870,8752 L 10570,12502 11870,8752 Z"/>
    </g>
   </g>
  </g>
  <g class="Group">
   <g class="com.sun.star.drawing.PolyPolygonShape">
    <g id="id15">
     <rect class="BoundingBox" stroke="none" fill="none" x="4564" y="13444" width="5653" height="1965"/>
     <path fill="rgb(36,83,255)" stroke="none" d="M 4670,13550 L 10110,13550 9244,15301 5534,15301 4670,13550 Z"/>
     <path fill="none" stroke="rgb(51,51,51)" stroke-width="212" stroke-linejoin="round" d="M 4670,13550 L 10110,13550 9244,15301 5534,15301 4670,13550 Z"/>
    </g>
   </g>
   <g class="com.sun.star.drawing.PolyPolygonShape">
    <g id="id16">
     <rect class="BoundingBox" stroke="none" fill="none" x="5424" y="13444" width="3933" height="1965"/>
     <path fill="rgb(36,83,255)" stroke="none" d="M 5530,15301 L 9250,15301 8658,13550 6121,13550 5530,15301 Z"/>
     <path fill="none" stroke="rgb(51,51,51)" stroke-width="212" stroke-linejoin="round" d="M 5530,15301 L 9250,15301 8658,13550 6121,13550 5530,15301 Z"/>
    </g>
   </g>
   <g class="com.sun.star.drawing.PolyPolygonShape">
    <g id="id17">
     <rect class="BoundingBox" stroke="none" fill="none" x="5906" y="13444" width="2939" height="1965"/>
     <path fill="rgb(36,83,255)" stroke="none" d="M 7416,15301 L 8738,13550 6012,13550 7416,15301 Z"/>
     <path fill="none" stroke="rgb(51,51,51)" stroke-width="212" stroke-linejoin="round" d="M 7416,15301 L 8738,13550 6012,13550 7416,15301 Z"/>
    </g>
   </g>
   <g class="com.sun.star.drawing.PolyPolygonShape">
    <g id="id18">
     <rect class="BoundingBox" stroke="none" fill="none" x="4574" y="9695" width="5633" height="3964"/>
     <path fill="rgb(36,83,255)" stroke="none" d="M 7389,9801 L 10100,13552 4680,13552 7389,9801 Z"/>
     <path fill="none" stroke="rgb(51,51,51)" stroke-width="212" stroke-linejoin="round" d="M 7389,9801 L 10100,13552 4680,13552 7389,9801 Z"/>
    </g>
   </g>
   <g class="com.sun.star.drawing.PolyPolygonShape">
    <g id="id19">
     <rect class="BoundingBox" stroke="none" fill="none" x="5994" y="9694" width="1513" height="3964"/>
     <path fill="rgb(36,83,255)" stroke="none" d="M 6100,13551 L 7400,9801 6100,13551 Z"/>
     <path fill="none" stroke="rgb(51,51,51)" stroke-width="212" stroke-linejoin="round" d="M 6100,13551 L 7400,9801 6100,13551 Z"/>
    </g>
   </g>
   <g class="com.sun.star.drawing.PolyPolygonShape">
    <g id="id20">
     <rect class="BoundingBox" stroke="none" fill="none" x="7264" y="9693" width="1513" height="3964"/>
     <path fill="rgb(36,83,255)" stroke="none" d="M 8670,13550 L 7370,9800 8670,13550 Z"/>
     <path fill="none" stroke="rgb(51,51,51)" stroke-width="212" stroke-linejoin="round" d="M 8670,13550 L 7370,9800 8670,13550 Z"/>
    </g>
   </g>
  </g>
 </g>
</svg>