/* XPM */
static char * sample_xpm[] = {
"32 32 440 2",
"  	c None",
". 	c #527FFA",
"+ 	c #324EF2",
"@ 	c #484AFF",
"# 	c #458CFF",
"$ 	c #3FB5F8",
"% 	c #1361D9",
"& 	c #192EF7",
"* 	c #2929FC",
"= 	c #4E4FFF",
"- 	c #3337FD",
"; 	c #3062F4",
"> 	c #5AD8F3",
", 	c #2EBBF3",
"' 	c #1278E0",
") 	c #0F4ED3",
"! 	c #1421F6",
"~ 	c #1E21FD",
"{ 	c #2C2DFB",
"] 	c #4D84FF",
"^ 	c #47A6FF",
"/ 	c #4698E1",
"( 	c #3C52DC",
"_ 	c #355BE8",
": 	c #2B4CE8",
"< 	c #293FE6",
"[ 	c #2633DB",
"} 	c #3851C2",
"| 	c #2A6FEE",
"1 	c #1D57ED",
"2 	c #2547EE",
"3 	c #2B62DC",
"4 	c #34A4F1",
"5 	c #3DD0F7",
"6 	c #3D81D2",
"7 	c #1D1FFC",
"8 	c #0909FB",
"9 	c #0909FA",
"0 	c #0808FA",
"a 	c #0808F8",
"b 	c #1E2BCF",
"c 	c #3F84DE",
"d 	c #0F6CDB",
"e 	c #0C56D8",
"f 	c #0529DC",
"g 	c #FCF957",
"h 	c #EEE93A",
"i 	c #F3E130",
"j 	c #092FDE",
"k 	c #0F6EDB",
"l 	c #2380D5",
"m 	c #2E38F2",
"n 	c #0606F7",
"o 	c #0708EA",
"p 	c #3654C4",
"q 	c #266AD5",
"r 	c #0351E9",
"s 	c #0215E1",
"t 	c #FDF94E",
"u 	c #FFFC40",
"v 	c #FDFD48",
"w 	c #D9D71B",
"x 	c #EDE013",
"y 	c #FAE724",
"z 	c #0611E8",
"A 	c #0E4CD1",
"B 	c #3246D6",
"C 	c #1314FD",
"D 	c #0606F8",
"E 	c #0505F5",
"F 	c #1319D4",
"G 	c #3C63C5",
"H 	c #0D45F6",
"I 	c #0306E1",
"J 	c #FCF852",
"K 	c #FDF83A",
"L 	c #FBEF28",
"M 	c #FAF759",
"N 	c #FAFA3F",
"O 	c #EFEF14",
"P 	c #CFCB0B",
"Q 	c #F1DE0D",
"R 	c #FDE818",
"S 	c #F8E328",
"T 	c #211DE7",
"U 	c #2034D1",
"V 	c #2125E3",
"W 	c #0707F9",
"X 	c #0505E9",
"Y 	c #384BC6",
"Z 	c #253CF7",
"` 	c #0303E2",
" .	c #FEFC49",
"..	c #FFF837",
"+.	c #E2D434",
"@.	c #CDC562",
"#.	c #D6D46C",
"$.	c #D7D55F",
"%.	c #D7D55C",
"&.	c #CECC5A",
"*.	c #BFB347",
"=.	c #D7C73F",
"-.	c #F6E51B",
";.	c #F3E230",
">.	c #7068D0",
",.	c #388BE9",
"'.	c #284DBD",
").	c #0606EE",
"!.	c #0505F6",
"~.	c #0505F4",
"{.	c #0E11DA",
"].	c #506DD4",
"^.	c #1E44F6",
"/.	c #0304E1",
"(.	c #F1EC45",
"_.	c #FEFE49",
":.	c #F6F654",
"<.	c #C4C36A",
"[.	c #FAF874",
"}.	c #FEF652",
"|.	c #FEF54F",
"1.	c #FEF54E",
"2.	c #FEF34D",
"3.	c #EFD941",
"4.	c #BDB154",
"5.	c #ECEB34",
"6.	c #D1CF29",
"7.	c #636CC8",
"8.	c #2E9FF8",
"9.	c #2C77CD",
"0.	c #101BD1",
"a.	c #0505EB",
"b.	c #3A4BCE",
"c.	c #4678DA",
"d.	c #064DE9",
"e.	c #020EE1",
"f.	c #CEC317",
"g.	c #F4F41D",
"h.	c #D2D137",
"i.	c #E9E77B",
"j.	c #FFF24A",
"k.	c #FFE73B",
"l.	c #FFE63A",
"m.	c #FDE239",
"n.	c #D1B438",
"o.	c #D3D051",
"p.	c #D2D225",
"q.	c #6175B9",
"r.	c #1368D1",
"s.	c #1467D5",
"t.	c #2541B3",
"u.	c #1A0BE6",
"v.	c #3D15ED",
"w.	c #1B08F2",
"x.	c #0505F3",
"y.	c #0505F1",
"z.	c #171CD3",
"A.	c #5377DB",
"B.	c #1861D2",
"C.	c #0354E3",
"D.	c #0221DE",
"E.	c #D8BF09",
"F.	c #D3D213",
"G.	c #CBC96B",
"H.	c #FDF761",
"I.	c #FFE93C",
"J.	c #F3D435",
"K.	c #BCAB4B",
"L.	c #C9C73B",
"M.	c #9F9C92",
"N.	c #2D4CD8",
"O.	c #0F52E6",
"P.	c #5A58C0",
"Q.	c #B74695",
"R.	c #DD466F",
"S.	c #AA2599",
"T.	c #5018C1",
"U.	c #1E21CA",
"V.	c #475BD3",
"W.	c #3B71ED",
"X.	c #0351EE",
"Y.	c #023CEA",
"Z.	c #E7C307",
"`.	c #AFAA3C",
" +	c #F2F076",
".+	c #FFEE43",
"++	c #FFE53A",
"@+	c #FEE238",
"#+	c #DABC34",
"$+	c #C1B954",
"%+	c #F1D526",
"&+	c #A8817A",
"*+	c #A83FB8",
"=+	c #E44575",
"-+	c #FB494C",
";+	c #E43131",
">+	c #D3161B",
",+	c #CF2C50",
"'+	c #9A5BAD",
")+	c #4D4DEF",
"!+	c #0E1EF3",
"~+	c #010EE9",
"{+	c #E7C10C",
"]+	c #B8A948",
"^+	c #F5E349",
"/+	c #FFE539",
"(+	c #FFE439",
"_+	c #EFCE32",
":+	c #C0AC53",
"<+	c #F3BC43",
"[+	c #EE6842",
"}+	c #F13033",
"|+	c #F34344",
"1+	c #FE5353",
"2+	c #F71F1F",
"3+	c #CE0A0A",
"4+	c #D40C0E",
"5+	c #D91828",
"6+	c #C32273",
"7+	c #9F25A3",
"8+	c #ECCA1B",
"9+	c #C9C349",
"0+	c #CBB137",
"a+	c #FDE139",
"b+	c #FEE038",
"c+	c #E0B037",
"d+	c #E47B54",
"e+	c #F54A3A",
"f+	c #DF1C1A",
"g+	c #C93030",
"h+	c #DB5C5C",
"i+	c #DD3B3B",
"j+	c #DD2020",
"k+	c #CE1919",
"l+	c #B21718",
"m+	c #BE191A",
"n+	c #D81516",
"o+	c #DD1B1C",
"p+	c #D72B2B",
"q+	c #ECD72A",
"r+	c #F1F02F",
"s+	c #B1A73F",
"t+	c #EACB34",
"u+	c #FEE239",
"v+	c #EFAD42",
"w+	c #F8604D",
"x+	c #FA4645",
"y+	c #F44F4F",
"z+	c #C04747",
"A+	c #DE4848",
"B+	c #EC3E3E",
"C+	c #E93737",
"D+	c #E83535",
"E+	c #DF3131",
"F+	c #A43030",
"G+	c #CC4646",
"H+	c #E21F1F",
"I+	c #D81D1D",
"J+	c #D32424",
"K+	c #D5CC23",
"L+	c #DBDB0D",
"M+	c #C8C72F",
"N+	c #BEA638",
"O+	c #FADC37",
"P+	c #FFE339",
"Q+	c #FADA36",
"R+	c #C8642E",
"S+	c #ED3838",
"T+	c #FE4343",
"U+	c #E84343",
"V+	c #CD4949",
"W+	c #F42828",
"X+	c #E30C0C",
"Y+	c #DF0A0A",
"Z+	c #DD0A0A",
"`+	c #BA0C0C",
" @	c #B24848",
".@	c #F02B2B",
"+@	c #CD0C0C",
"@@	c #C70F0F",
"#@	c #A90707",
"$@	c #C9B90F",
"%@	c #D6CB04",
"&@	c #D3CE0F",
"*@	c #ABA13D",
"=@	c #D3B631",
"-@	c #EACA31",
";@	c #EBCB31",
">@	c #D9B82B",
",@	c #A54615",
"'@	c #CE1313",
")@	c #F71717",
"!@	c #C03232",
"~@	c #F13C3C",
"{@	c #E20D0D",
"]@	c #D70707",
"^@	c #CF0606",
"/@	c #A22222",
"(@	c #D34646",
"_@	c #D10C0C",
":@	c #D20404",
"<@	c #A20202",
"[@	c #C5A701",
"}@	c #DFBF03",
"|@	c #E0C529",
"1@	c #C9B852",
"2@	c #C2B654",
"3@	c #C9BF54",
"4@	c #C9BF53",
"5@	c #C4B953",
"6@	c #CDBD56",
"7@	c #AB582A",
"8@	c #C40B0A",
"9@	c #CA1616",
"0@	c #D94545",
"a@	c #ED1C1C",
"b@	c #D90707",
"c@	c #D60707",
"d@	c #BE0707",
"e@	c #A53F3F",
"f@	c #C92F2F",
"g@	c #D90404",
"h@	c #990303",
"i@	c #C9A204",
"j@	c #E6C017",
"k@	c #DCCF1C",
"l@	c #CDCC1B",
"m@	c #D1D01B",
"n@	c #E6DD1B",
"o@	c #EFCE1B",
"p@	c #AC520A",
"q@	c #C10C0A",
"r@	c #AE3535",
"s@	c #F33333",
"t@	c #DE0A0A",
"u@	c #D00606",
"v@	c #A61717",
"w@	c #BA4848",
"x@	c #D21313",
"y@	c #970303",
"z@	c #BC9901",
"A@	c #CDAE02",
"B@	c #D7CB04",
"C@	c #E0D403",
"D@	c #DEC401",
"E@	c #C19A01",
"F@	c #9D3205",
"G@	c #B71414",
"H@	c #B23030",
"I@	c #DD1111",
"J@	c #D80707",
"K@	c #D50707",
"L@	c #D40606",
"M@	c #B90505",
"N@	c #AA4242",
"O@	c #CB2B2B",
"P@	c #C5AC02",
"Q@	c #CCB401",
"R@	c #990906",
"S@	c #D02C2C",
"T@	c #A43B3B",
"U@	c #B70B0B",
"V@	c #A61313",
"W@	c #C75E5E",
"X@	c #D02424",
"Y@	c #9B0C0C",
"Z@	c #EB3636",
"`@	c #D93535",
" #	c #992424",
".#	c #C90707",
"+#	c #D40707",
"@#	c #BC0505",
"##	c #AD4747",
"$#	c #D45454",
"%#	c #D10808",
"&#	c #A61A1A",
"*#	c #E52626",
"=#	c #EF1515",
"-#	c #B13030",
";#	c #AB0E0E",
">#	c #D20707",
",#	c #CC0505",
"'#	c #A21E1E",
")#	c #D96464",
"!#	c #CE1F1F",
"~#	c #D00404",
"{#	c #9D0303",
"]#	c #AB1C1C",
"^#	c #C21313",
"/#	c #C90505",
"(#	c #C11E1E",
"_#	c #922828",
":#	c #C10707",
"<#	c #D10606",
"[#	c #CE0505",
"}#	c #B30707",
"|#	c #B55454",
"1#	c #D74747",
"2#	c #CF0404",
"3#	c #D00303",
"4#	c #A40202",
"5#	c #AF0303",
"6#	c #C80303",
"7#	c #B02F2F",
"8#	c #962020",
"9#	c #A11414",
"0#	c #A21313",
"a#	c #A01313",
"b#	c #A13232",
"c#	c #DE6060",
"d#	c #DD1414",
"e#	c #CD0202",
"f#	c #B30101",
"g#	c #A40101",
"h#	c #920101",
"i#	c #B91818",
"j#	c #C54040",
"k#	c #C64646",
"l#	c #CE4646",
"m#	c #D64545",
"n#	c #CA4545",
"o#	c #D14545",
"p#	c #D24B4B",
"q#	c #C42B2B",
"r#	c #A30202",
"s#	c #940000",
"t#	c #910101",
"u#	c #A70606",
"v#	c #C80808",
"w#	c #C70808",
"x#	c #CA0707",
"y#	c #AA0606",
"z#	c #980101",
"A#	c #BF0303",
"B#	c #CF0303",
"C#	c #C90202",
"D#	c #9D0101",
"E#	c #9E0101",
"F#	c #AE0101",
"G#	c #A00101",
"                                                                ",
"                                          . +                   ",
"                                      @ # $ % & *               ",
"                                  = - ; > , ' ) ! ~ {           ",
"                                ] ^ / ( _ : < [ } | 1 2         ",
"                              3 4 5 6 7 8 9 0 a b c d e f       ",
"                g h i         j k l m 8 n n n n o p q r s       ",
"            t u v w x y       z A B C D n n n n E F G H I       ",
"        J K L M N O P Q R S   T U V W n n n n E E X Y Z `       ",
"       ...+.@.#.$.%.&.*.=.-.;.>.,.'.).n n !.E E ~.{.].^./.      ",
"    (._.:.<.[.}.|.1.2.3.4.5.6.7.8.9.0.E !.E E E a.b.c.d.e.      ",
"    f.g.h.i.j.k.l.l.l.m.n.o.p.q.r.s.t.u.v.w.x.y.z.A.B.C.D.      ",
"    E.F.G.H.I.l.l.l.l.l.J.K.L.M.N.O.P.Q.R.S.T.U.V.W.X.Y.        ",
"    Z.`. +.+l.l.l.l.l.++@+#+$+%+&+*+=+-+;+>+,+'+)+!+~+          ",
"    {+]+^+k.l.l.l.l./+(+(+_+:+<+[+}+|+1+2+3+4+5+6+7+            ",
"    8+9+0+a+l.l.++(+(+(+b+c+d+e+f+g+h+i+j+k+l+m+n+o+p+          ",
"    q+r+s+t+++++(+(+(+u+v+w+x+y+z+A+B+C+D+D+E+F+G+H+I+J+        ",
"    K+L+M+N+O+(+(+(+P+Q+R+S+T+U+V+W+X+Y+Y+Y+Z+`+ @.@+@@@#@      ",
"    $@%@&@*@=@-@;@;@;@>@,@'@)@!@~@{@]@]@]@]@]@^@/@(@_@:@<@      ",
"      [@}@|@1@2@3@4@5@6@7@8@9@0@a@b@]@]@]@]@]@c@d@e@f@g@h@      ",
"          i@j@k@l@m@n@o@p@q@r@s@t@]@]@]@]@]@]@c@u@v@w@x@y@      ",
"            z@A@B@C@D@E@F@G@H@I@J@]@]@]@]@c@K@K@L@M@N@O@y@      ",
"                P@Q@    R@S@T@U@K@]@]@]@c@K@K@K@u@V@W@X@y@      ",
"                        Y@Z@`@ #.#]@]@K@K@K@K@+#@###$#%#y@      ",
"                        &#*#=#-#;#>#K@K@K@K@K@,#'#)#!#~#{#      ",
"                        ]#^#/#(#_#:#<#<#<#<#[#}#|#1#2#3#4#      ",
"                          5#6#K@7#8#9#0#0#0#a#b#c#d#e#f#g#      ",
"                            h#<@i#j#k#l#m#n#o#p#q#r#s#          ",
"                                t#u#v#w#x#c@K@y#h#              ",
"                                    z#A#B#C#D#                  ",
"                                      E#F#G#                    ",
"                                                                "};
