/* XPM */
static char *test2[] = {
/* width height num_colors chars_per_pixel */
"    64    64        8            1",
/* colors */
"` c #3f0b1c",
". c #049a04",
"# c #f1251a",
"a c #5f6004",
"b c #0402db",
"c c #989804",
"d c #f7f904",
"e c #fcfefc",
/* pixels */
"bbbbbbbbbbbbbbbbbbbbbbbbbbbbbbbbbbbbbbbbbbbbbbbbbbbbbbbbbbbbbbbb",
"bbbbbbbbbbbbbbbbbbbbbbbb################bbbbbbbbbbbbbbbbbbbbbbbb",
"bbb##########bbbbbb########################bbbbbbbbbbbbbbbbbbbbb",
"bbb############bbbb##########################bbbbbbbbbbbbbbbbbbb",
"bb############b####bbb#########################bbbbbbbbbbbbbbbbb",
"bb##########bb########bb###########bbbbbbbbbbbbbbbbbbbbbbbbbbbbb",
"bb########bb############bb#######bb#############b##bbbbbbbbbbbbb",
"bb#######b########bb######dddddddddd````#########b########bbbbbb",
"bb######b#######bb####dddddddddddddddddd````#####b##########bbbb",
"bb#####b########b###dddddddddddddddddddddd````####b##########bbb",
"bb#####b########b#dddddddddddddddddddddddddd````##b##########bbb",
"b#####b########bdddddddddddddddddddddddddddddd````b###########bb",
"b#####b########dddddddddddddddddddddddddddddddd```b###########bb",
"b####b########dddddddddddddddddddddddddddddddddd````###########b",
"b####b#######dddddddddddddddddddddddddddddddddddd```a##########b",
"b####b######ddddddddcdddddddddddddddddddddddddddcd````#########b",
"b####b#####ddddbbbccccdddddddddddddddddddddbbbdcccc```a########b",
"b####b####ddddbbbbcaaccddddddddddddddddddddbbbbcaacd````#######b",
"b####b###dddddbbbbcaaaddddddddcdcdcdcddddddbbbbaaaacd```#######b",
"b####b###dddddbbbbaaaacddbbbbbbbbacaccdddddbbbbcaaadd````######b",
"b####b##ddddddbbbbca`cdbbbbbbbbbbbbaaaccdddbbbbaaaacdd```a#####b",
"b####b##ddddddbbbbaaaabbbbbbbbbbbbbbaaaccddbbbbaaaaddd````#####b",
"b####b#dddddddbbbbcaabbbbbbbbbbbbbbbba`acddbbbbcaaacddd```####bb",
"bb###b#dddddddbbbbaa`bbbbbbbaabbbbbbbaaaacdbbbbaa`cdddd````###bb",
"bb###bddddddddbbbbaaaabbbbccaccdbbbbbba`accbbbbaaaacdddd```a##bb",
"bb###bddddddddbbbbcaaaddddcdcddddbbbbbaaaacbbbbcaaaddddd````##bb",
"bbb##bddddddddbbbbaaaacdddddddddddbbbbba`acbbbbaaaacdddd````##bb",
"bbb#beddddddddbbbbaaaaddddddddddddbbbbbaaacbbbbaaaaddddd````##bb",
"bbbbbdddddddddbbbbcaaacdddddddddddbbbbba`aabbbbcaaacddddd```#bbb",
"bbbbbdddddddddbbbbaa`cddddddddddddbbbbbaaacbbbbaa`cdddddd````bbb",
"bbbbbdddddddddbbbbaaaacddddddddddbbbbba`aacbbbbaaaacddddd````bbb",
"bbbbbdddddddddbbbbcaaaddddddddddbbbbbbaaaadbbbbcaaadddddd```bbbb",
"bbbbbdddddddddbbbbaaaacddddddddbbbbbbb`aaccbbbbaaaacddddd```bbbb",
"bbbbbdddddddddbbbbaaaadddddddbbbbbbbbaaaaddbbbbaaaadddddd```bbbb",
"bbbbbdddddddddbbbbcaaacdddddbbbbbbbba`accddbbbbcaaacddddd`b`bbbb",
"bbbbbdddddddddbbbbaa`cdddddbbbbbbbbaaaccdddbbbbaa`cdddddd```bbbb",
"bbbbbdddddddddbbbbaaaacdddbbbbbbba`aacdddddbbbbaaaacddddd`b`bbbb",
"bbbbbdddddddddbbbbcaaadddbbbbbbbaaaccddddddbbbbcaaadddddd```bbbb",
"bbbbbbddddddddbbbbaaaadddbbbbbba`accdddddddbbbbaaaaddddd``b`bbbb",
"bbbbbbddddddddbbbbccacddddbbbbcacccddddddddbbbbccacddddd```bbbbb",
"bbbbbbdddddddddddddcdcdddddbddcccdddddddddddddddcddddddd``bbbbbb",
"bbbbbbdddddddddddddcdddddddddcccdcdddddddddddddcdcdddddd```bbbbb",
"bbbbbbbddddddddbbdccccdddbbbbccccddddddddddbbdcccdddddd````bbbbb",
"bbbbbbbdddddddbbbbcaacddbbbbbaaaadddddddddbbbbcaaacdddd```#bbbbb",
"bbbbbb.bddddddbbbbcaaccdbbbbba`accddddddddbbbbbaaacddd````##bbbb",
"bbbbbb..ddddddbbbbcaaaddbbbbbaaacdddddddddbbbbbaaacddd```###bbbb",
"bbbbb...bddddddbbbccccddbbbbccaccddddddddddbbbcccccdd````###bbbb",
"bbbbb....dddddddddddcddddddddcddddddddddddddddddcdddd```####bbbb",
"bbbbb.....dddddddddddddddddddddddddddddddddddddddddd```#####bbbb",
"bbbbb......dddddddddddddddddddddddddddddddddddddddd```######bbbb",
"bbbbb.......dddddddddddddddddddddddddddddddddddddd```#######bbbb",
"bbbbb........dddddddddddddddddddddddddddddddddddd```#######bbbbb",
"bbbbb.........dddddddddddddddddddddddddddddddddd```########bbbbb",
"bbbbb..........dddddddddddddddddddddddddddddddd```#########bbbbb",
"bbbbb...........dddddddddddddddddddddddddddddd`b``########bbbbbb",
"bbbbb.............dddddddddddddddddddddddddd``bbb#########bbbbbb",
"bbbbb...............dddddddddddddddddddddd```bbbbb########bbbbbb",
"bbbbb.................dddddddddddddddddd``#`#bbbbb#######bbbbbbb",
"bbbbbb....................dddddddddd`#`#####bbbbbbb######bbbbbbb",
"bbbbbb......................bbbbbbbbb####bbbbbbbbbb#####bbbbbbbb",
"bbbbbb.......................bbbbbbbbbbbbbbbbbbbbbbb####bbbbbbbb",
"bbbbbbb.....................bebbbbbbbbbbbbbbbbbbbbbbbb#bbbbbbbbb",
"bbbbbbb....................beeeebbbbbbbbbbbbbbbbbbbbbbbbbbbbbbbb",
"bbbbbbbb..................beeeeeeebbbbbbbbbbbbbbbbbbbeeebbbbbbbb"
};
