/* XPM */
static char * sample_xpm[] = {
"32 32 216 2",
"  	c None",
". 	c #872C2C",
"+ 	c #A52827",
"@ 	c #A42828",
"# 	c #553131",
"$ 	c #7D2D2D",
"% 	c #3D3232",
"& 	c #535331",
"* 	c #AEAE26",
"= 	c #85852C",
"- 	c #ACAC26",
"; 	c #88882C",
"> 	c #9B2929",
", 	c #A92626",
"' 	c #F10D0C",
") 	c #B32424",
"! 	c #D91919",
"~ 	c #A52727",
"{ 	c #E51414",
"] 	c #DC1817",
"^ 	c #9F2828",
"/ 	c #A5A527",
"( 	c #F2F20B",
"_ 	c #FFFF00",
": 	c #F1F10C",
"< 	c #AEAE25",
"[ 	c #E7E712",
"} 	c #BEBE22",
"| 	c #999929",
"1 	c #DE1716",
"2 	c #A82626",
"3 	c #EF0E0D",
"4 	c #CA1E1E",
"5 	c #C42020",
"6 	c #EC1010",
"7 	c #9E2828",
"8 	c #B12525",
"9 	c #E91211",
"0 	c #922A2A",
"a 	c #A8A827",
"b 	c #EFEF0D",
"c 	c #C5C520",
"d 	c #FBFB03",
"e 	c #A6A627",
"f 	c #FAFA04",
"g 	c #CACA1E",
"h 	c #DDDD18",
"i 	c #F8F806",
"j 	c #B8B823",
"k 	c #E3E315",
"l 	c #9E2929",
"m 	c #D01D1D",
"n 	c #B72423",
"o 	c #AD2625",
"p 	c #DD1817",
"q 	c #B22525",
"r 	c #D71A1A",
"s 	c #EBEB10",
"t 	c #B0B025",
"u 	c #C0C021",
"v 	c #E6E613",
"w 	c #97972A",
"x 	c #A22828",
"y 	c #BB2323",
"z 	c #B82424",
"A 	c #4A3232",
"B 	c #842D2D",
"C 	c #912B2B",
"D 	c #5B3131",
"E 	c #70702F",
"F 	c #C6C620",
"G 	c #8E8E2B",
"H 	c #9A9A29",
"I 	c #484832",
"J 	c #A4A428",
"K 	c #9D2828",
"L 	c #E61211",
"M 	c #E51212",
"N 	c #DF1615",
"O 	c #D21B1A",
"P 	c #423232",
"Q 	c #515131",
"R 	c #E4E412",
"S 	c #F3F307",
"T 	c #E2E213",
"U 	c #BEBE20",
"V 	c #ECEC0C",
"W 	c #B1B124",
"X 	c #999928",
"Y 	c #CF1D1D",
"Z 	c #CD1E1D",
"` 	c #D21C1C",
" .	c #A42727",
"..	c #ED0F0F",
"+.	c #7E2D2D",
"@.	c #92922B",
"#.	c #FDFD01",
"$.	c #D1D11C",
"%.	c #E5E513",
"&.	c #643030",
"*.	c #E61313",
"=.	c #EE0F0E",
"-.	c #A92726",
";.	c #C1C121",
">.	c #ADAD25",
",.	c #EEEE0E",
"'.	c #5C5C31",
").	c #F00D0C",
"!.	c #AA2726",
"~.	c #AF2525",
"{.	c #EA1110",
"].	c #32365A",
"^.	c #333440",
"/.	c #E2E215",
"(.	c #F0F00D",
"_.	c #C4C420",
":.	c #F5F508",
"<.	c #BCBC22",
"[.	c #FCFC02",
"}.	c #8C8C2B",
"|.	c #B92323",
"1.	c #E51413",
"2.	c #633030",
"3.	c #313A74",
"4.	c #2D43AE",
"5.	c #2E40A2",
"6.	c #313975",
"7.	c #77772E",
"8.	c #F7F706",
"9.	c #CBCB1E",
"0.	c #BABA23",
"a.	c #D81919",
"b.	c #A62727",
"c.	c #D41B1B",
"d.	c #C91F1E",
"e.	c #8F2B2B",
"f.	c #323553",
"g.	c #2C45BA",
"h.	c #284CE0",
"i.	c #2A4AD5",
"j.	c #2C46C0",
"k.	c #A3A328",
"l.	c #DEDE17",
"m.	c #772E2E",
"n.	c #EC100F",
"o.	c #AB2626",
"p.	c #B12524",
"q.	c #2B47C8",
"r.	c #2D43AF",
"s.	c #2453FF",
"t.	c #2552FA",
"u.	c #2D44B6",
"v.	c #2C45BE",
"w.	c #BEBE21",
"x.	c #BFBF22",
"y.	c #B2B224",
"z.	c #6B2F2F",
"A.	c #C6201F",
"B.	c #2F409F",
"C.	c #2551F8",
"D.	c #2C44B9",
"E.	c #2452FC",
"F.	c #2F3E92",
"G.	c #585831",
"H.	c #8E8E2A",
"I.	c #79792D",
"J.	c #5C3030",
"K.	c #333333",
"L.	c #313971",
"M.	c #2551F5",
"N.	c #2A49D0",
"O.	c #284EE6",
"P.	c #294BD9",
"Q.	c #294CDD",
"R.	c #2650F1",
"S.	c #323761",
"T.	c #606030",
"U.	c #294CDE",
"V.	c #2D42AD",
"W.	c #2D43B3",
"X.	c #2A4AD6",
"Y.	c #2C45BD",
"Z.	c #303B7C",
"`.	c #2650F0",
" +	c #2650F3",
".+	c #2B46C3",
"++	c #284CDE",
"@+	c #2A49D1",
"#+	c #264FED",
"$+	c #31396F",
"%+	c #303D90",
"&+	c #2B47C6",
"*+	c #31386B",
"=+	c #2E41A7",
"-+	c #313A77",
";+	c #303C86",
">+	c #2551F7",
",+	c #2D43B1",
"'+	c #2E41A6",
")+	c #2552FB",
"!+	c #2552F9",
"~+	c #2552F8",
"{+	c #323765",
"]+	c #2B48CB",
"^+	c #2A49CF",
"/+	c #274EE7",
"(+	c #264FEE",
"_+	c #2D42AE",
":+	c #2650F2",
"<+	c #294BDA",
"[+	c #2C46C1",
"}+	c #313A78",
"|+	c #2D42AA",
"1+	c #294BDC",
"2+	c #2B48CA",
"3+	c #2453FD",
"                                                                ",
"                                                                ",
"                                                                ",
"                                                                ",
"                                                                ",
"      . + + @ # $ + + + %             & * * * = & - * * ;       ",
"    > , ' ' ) ! ~ { ' ] ^             / ( _ : < [ } _ _ < |     ",
"    1 2 3 4 5 ' 6 7 3 8 9 0         a b c d e f _ g h i j k     ",
"  l ' m n o ' ' ' p q ~ ' r         s _ < t b _ _ _ < u v _ w   ",
"  x y z A z y y y y B C y y D     E F F G H F F F F } I c F J   ",
"  K L L ^ M L L L L , N L O P     Q R S T U S S S S V W S S X   ",
"    Y ' Z ` ' ' ' '  .' ..+.        @.#._ < _ _ _ _ $.%._ $.    ",
"    &.*.=., ' ' ' ! 5 ' -.            } _ ;.( _ _ _ >._ ,.'.    ",
"      C ).!.=.' ' ~.{.Z       ].^.      /.(._._ _ :.<.[.}.      ",
"        |.` Z ' ' ~ 1.2.    3.4.5.6.    7.8.>._ _ 9.s 0.        ",
"          a.b.' c.d.e.    f.g.h.i.j.      k.F ,._ < l.          ",
"          m. .n.o.p.      q.r.s.t.u.v.      w.x.( y.E           ",
"            z.A.$       B.C.D.s.s.r.E.F.    G.H._.I.            ",
"              J.K.    L.M.N.O.s.s.P.Q.R.S.    K.T.              ",
"              K.      U.s.V.s.s.s.E.W.s.X.                      ",
"                    g.s.M.Y.s.s.s.s.W.E.s.V.                    ",
"                  Z.`. +.+++ + + + +@+N. +#+$+                  ",
"                  %+&+&+*+W.&+&+&+&+=+-+&+&+;+                  ",
"                  6.E.>+,+'+)+s.s.!+=+r.E.~+{+                  ",
"                    ]+^+/+(+,+s.s._+:+Q.<+[+                    ",
"                    }+|+s.s.1+q.2+Q.s.3+=+{+                    ",
"                      6._+_+_+$+$+_+_+_+*+                      ",
"                                                                ",
"                                                                ",
"                                                                ",
"                                                                ",
"                                                                "};
